<svg version="1.1" id="Layer_1" xmlns="http://www.w3.org/2000/svg" xmlns:xlink="http://www.w3.org/1999/xlink" x="0px" y="0px"
	 width="100%" viewBox="0 0 1024 1024" enable-background="new 0 0 1024 1024" xml:space="preserve">
<path fill="none" opacity="1.000000" stroke="#000000" stroke-linecap="round" stroke-linejoin="round" stroke-width="10.000000"
	d="
M332.500000,649.000000 
	C330.666656,648.833313 328.833679,648.526611 326.999939,648.522095 
	C311.500031,648.483459 296.000000,648.500000 280.500000,648.500000 
	C265.500000,648.500000 250.500000,648.500000 235.500000,648.500000 
	C226.500000,648.500000 217.497223,648.370911 208.501389,648.564636 
	C204.985413,648.640320 202.902191,646.025574 200.019226,644.948547 
	C190.300690,641.317749 182.953995,634.840515 177.467422,626.020264 
	C167.431503,609.886475 166.625656,592.605957 173.225067,575.587280 
	C181.698898,553.734741 199.670502,541.464294 225.000015,541.482178 
	C296.999969,541.532959 369.000824,541.689514 440.999481,541.379028 
	C461.338379,541.291321 480.978882,536.347290 499.455719,527.903076 
	C525.398804,516.046753 547.918518,499.098999 567.399353,478.405273 
	C583.357605,461.453491 597.585510,443.096436 604.982483,420.494263 
	C617.393311,382.571930 608.436523,349.227997 582.416931,320.074127 
	C567.409668,303.259125 547.931702,293.303467 525.961792,289.735046 
	C500.815704,285.650696 477.007141,290.834351 455.506134,305.009308 
	C434.523712,318.842346 420.636627,338.103607 413.653992,362.044922 
	C410.218170,373.825348 408.931702,385.895844 410.251862,398.525940 
	C413.149902,426.251709 426.851044,448.359650 444.014862,468.987640 
	C458.135681,485.958496 474.759186,500.148651 493.000000,512.500000 
"/>
<path fill="none" opacity="1.000000" stroke="#000000" stroke-linecap="round" stroke-linejoin="round" stroke-width="9.000000"
	d="
M851.250000,600.000000 
	C849.034729,599.808228 847.100891,600.849915 845.542358,602.054749 
	C832.806519,611.900879 817.717712,615.744629 802.521973,619.586853 
	C792.114014,622.218567 781.447449,623.206543 770.978394,625.396729 
	C767.589233,626.105713 763.985168,626.024658 760.486206,626.352600 
	C742.368469,628.050537 724.130920,628.230347 706.010193,627.301025 
	C682.868286,626.114319 659.776367,623.277466 637.533691,616.391235 
	C615.399597,609.538574 596.793579,597.132874 581.911560,579.072876 
	C573.657471,569.056274 566.403809,558.533264 563.117310,545.969299 
	C558.471375,528.208740 564.018494,512.920837 576.531067,500.030151 
	C587.550537,488.677673 598.899902,477.670563 608.546204,465.035248 
	C621.856689,447.600342 630.372559,428.068573 633.354309,406.479889 
	C636.603027,382.958740 632.810791,360.316498 623.109619,338.451355 
	C611.195251,311.597992 591.725281,291.931091 566.383667,278.214966 
	C552.614075,270.762238 537.374695,266.972015 521.518372,265.323486 
	C499.762054,263.061584 479.329254,267.271698 459.528503,275.568024 
	C447.179688,280.742126 436.326263,288.418762 426.506256,297.506775 
	C406.048950,316.439178 393.492950,339.779114 388.010132,367.002045 
	C383.040955,391.674744 386.377869,415.444824 395.999939,438.500031 
	C401.710052,452.182007 410.000397,464.224976 419.500000,475.500000 
"/>
<path fill="none" opacity="1.000000" stroke="#000000" stroke-linecap="round" stroke-linejoin="round" stroke-width="10.000000"
	d="
M343.500000,720.750000 
	C346.666656,720.666626 349.833282,720.513611 353.000000,720.511047 
	C377.833344,720.491089 402.667175,720.418884 427.499512,720.577698 
	C431.770203,720.605042 433.977051,719.640076 435.132446,715.033203 
	C438.714111,700.751587 447.750549,691.810608 462.495361,688.975830 
	C470.662262,687.405640 478.386017,689.222595 484.877686,693.678162 
	C492.384094,698.830383 498.624481,705.524536 499.562622,715.494080 
	C499.707367,717.032532 500.685486,718.492554 501.480743,720.500000 
	C510.327209,720.500000 519.430359,720.832642 528.493774,720.376343 
	C534.005920,720.098816 539.326965,713.791443 539.440369,707.998840 
	C539.649170,697.336243 540.192566,686.603516 539.227234,676.024902 
	C538.691162,670.151306 540.727295,664.356323 538.628784,658.454224 
	C536.690491,653.002625 535.880371,647.155090 534.487000,641.503174 
	C533.045410,635.655457 531.406372,629.855408 530.024536,623.994202 
	C528.419373,617.185730 527.636292,610.106506 525.306274,603.569031 
	C523.305969,597.956665 522.236084,591.689514 517.056824,587.430908 
	C512.291748,583.512817 507.289978,581.024597 501.024384,580.291565 
	C497.676910,579.900024 494.351593,579.520081 491.000000,579.519165 
	C404.000000,579.494934 316.999969,579.542175 230.000031,579.463257 
	C213.297318,579.448059 206.031769,589.310181 206.444931,603.001648 
	C206.731339,612.493042 206.500000,622.000000 206.500000,631.500000 
"/>
<path fill="none" opacity="1.000000" stroke="#000000" stroke-linecap="round" stroke-linejoin="round" stroke-width="10.000000"
	d="
M207.000000,649.500000 
	C205.979492,656.145325 206.603912,662.833557 206.529678,669.500305 
	C206.416473,679.665771 206.627121,689.835327 206.468002,699.999512 
	C206.266663,712.860718 216.043228,721.881470 227.013092,720.613281 
	C232.605026,719.966736 238.334335,720.436096 243.999619,720.524780 
	C247.215927,720.575134 248.764893,719.674072 249.641830,716.034180 
	C254.257034,696.877869 267.340637,688.507385 282.497284,688.706970 
	C298.880707,688.922607 309.137756,698.542847 314.369598,713.545471 
	C315.229980,716.012634 314.698242,719.484985 317.547516,720.342102 
	C321.151886,721.426514 324.928802,720.171875 327.963593,717.950256 
	C333.131165,714.167236 334.336304,708.338928 334.420502,702.498840 
	C334.651184,686.502197 335.046112,670.473022 334.257660,654.511963 
	C333.891937,647.108521 335.074249,639.855835 334.599762,632.493591 
	C334.139801,625.356506 334.406799,618.165100 334.530975,611.000549 
	C334.621948,605.750854 339.128754,600.975830 344.995636,601.148193 
	C353.493347,601.397888 362.059387,600.657837 370.521454,602.395569 
	C372.374847,602.776123 374.492432,601.604736 376.501251,601.538269 
	C387.163605,601.185547 397.917969,600.804321 408.478577,601.387878 
	C417.541168,601.888733 426.493225,600.874390 435.506378,601.387939 
	C444.477264,601.899109 453.500366,601.450989 462.499847,601.520203 
	C467.180450,601.556213 472.010284,599.689514 476.500000,602.500000 
	C487.445160,600.356934 498.528442,602.303650 509.489319,601.374084 
	C513.982544,600.993042 518.634399,601.709534 523.000000,600.000000 
"/>
<path fill="none" opacity="1.000000" stroke="#000000" stroke-linecap="round" stroke-linejoin="round" stroke-width="9.000000"
	d="
M781.500000,713.500000 
	C786.928223,722.154419 785.783020,725.234131 775.520630,731.036438 
	C769.253845,734.579590 762.397522,736.230530 755.483765,737.404419 
	C746.087158,738.999939 736.590393,739.617615 726.999817,739.599548 
	C705.418701,739.558960 685.804871,733.399109 668.029236,721.456482 
	C646.704285,707.129150 631.639282,687.200317 619.608521,664.941345 
	C612.619568,652.010376 606.932434,638.411621 603.468628,624.007568 
	C603.105164,622.495972 602.884827,620.555054 600.500000,620.750000 
"/>
<path fill="none" opacity="1.000000" stroke="#000000" stroke-linecap="round" stroke-linejoin="round" stroke-width="9.000000"
	d="
M827.000000,568.000000 
	C828.333313,567.512207 829.524597,567.352783 831.024475,567.937195 
	C837.706116,570.540833 843.845764,573.964661 848.992981,579.007202 
	C854.113220,584.023376 855.265442,589.867310 852.518372,596.507568 
	C851.995117,597.772339 850.906189,599.046814 851.526184,600.488708 
	C856.240784,611.453430 851.418030,621.895203 848.728882,631.927307 
	C841.042603,660.601440 824.602600,683.533508 800.047363,700.568237 
	C793.990784,704.769836 787.154907,707.633118 781.343750,712.305664 
	C779.553528,713.745117 775.395752,712.882629 773.611572,710.899597 
	C767.441040,704.041199 758.848450,704.163208 750.975891,702.623108 
	C739.777710,700.432434 728.320618,701.174988 717.007568,701.672302 
	C710.734558,701.948120 704.311096,702.791870 698.445312,705.896667 
	C696.104736,707.135620 694.042480,708.157410 694.042480,711.000000 
	C694.042480,713.842590 696.088745,714.880981 698.449829,716.097412 
	C704.946655,719.444763 712.052063,720.882751 719.012207,721.293762 
	C734.477844,722.206970 749.983032,721.747864 765.001465,717.004700 
	C768.347839,715.947876 771.699890,714.930176 773.500000,711.500000 
"/>
<path fill="none" opacity="1.000000" stroke="#000000" stroke-linecap="round" stroke-linejoin="round" stroke-width="10.000000"
	d="
M371.500000,603.500000 
	C371.500000,642.000000 371.500000,680.500000 371.500000,719.000000 
"/>
<path fill="none" opacity="1.000000" stroke="#000000" stroke-linecap="round" stroke-linejoin="round" stroke-width="9.000000"
	d="
M300.500000,721.000000 
	C299.095978,717.458862 298.948242,713.573486 296.086548,710.421448 
	C290.578033,704.354004 284.091766,702.530334 276.474274,704.917908 
	C269.385986,707.139587 263.649658,714.590088 264.418182,723.507080 
	C265.007660,730.347046 269.767151,737.143555 277.021606,738.911316 
	C286.143799,741.134155 295.552582,738.744934 299.475098,726.492004 
	C299.990021,724.883484 300.166656,723.166687 300.500000,721.500000 
"/>
<path fill="none" opacity="1.000000" stroke="#000000" stroke-linecap="round" stroke-linejoin="round" stroke-width="10.000000"
	d="
M316.500000,601.250000 
	C308.666656,601.333313 300.803711,601.878296 293.007843,601.377869 
	C284.158112,600.809753 275.415619,602.568298 266.464020,601.243042 
	C257.964569,599.984619 249.171051,602.271545 240.495743,601.029724 
	C239.025864,600.819336 237.488754,600.880615 236.001953,601.020691 
	C229.570816,601.626404 225.532990,606.024414 225.510971,612.500061 
	C225.471878,623.999878 225.500000,635.500000 225.500000,647.000000 
"/>
<path fill="none" opacity="1.000000" stroke="#000000" stroke-linecap="round" stroke-linejoin="round" stroke-width="9.000000"
	d="
M769.000000,451.000000 
	C761.884521,458.527069 758.328369,467.179199 761.576965,477.475708 
	C763.399841,483.253632 766.730103,488.392639 769.983765,493.510345 
	C773.163940,498.512360 776.539978,503.404907 777.530273,509.495087 
	C779.044861,518.809875 775.864502,526.425476 769.500000,533.000000 
"/>
<path fill="none" opacity="1.000000" stroke="#000000" stroke-linecap="round" stroke-linejoin="round" stroke-width="9.000000"
	d="
M703.500000,449.500000 
	C697.543701,449.555359 696.473083,454.783844 694.007874,458.505219 
	C687.700867,468.026154 690.720947,477.116272 695.540588,485.977936 
	C698.146118,490.768524 701.082092,495.387268 704.016907,499.989197 
	C710.942871,510.849487 709.026489,521.098755 701.958923,530.970581 
	C701.046143,532.245544 699.539734,533.103210 700.000000,535.000000 
"/>
<path fill="none" opacity="1.000000" stroke="#000000" stroke-linecap="round" stroke-linejoin="round" stroke-width="9.000000"
	d="
M734.250000,415.500000 
	C730.816833,420.210175 726.711426,424.531708 724.548462,430.019104 
	C720.330627,440.719543 722.799561,450.744354 727.956726,460.522827 
	C731.508667,467.257690 735.396240,473.818909 739.171692,480.401550 
	C748.071045,495.918030 743.895630,511.793732 733.000000,522.000000 
"/>
<path fill="none" opacity="1.000000" stroke="#000000" stroke-linecap="round" stroke-linejoin="round" stroke-width="10.000000"
	d="
M509.750031,316.500000 
	C509.666687,338.333344 509.579529,360.166656 509.506683,382.000031 
	C509.500397,383.885742 509.237701,385.809814 510.487213,387.509399 
	C511.804321,389.300873 511.181061,391.166656 510.500000,393.000000 
"/>
<path fill="none" opacity="1.000000" stroke="#000000" stroke-linecap="round" stroke-linejoin="round" stroke-width="10.000000"
	d="
M383.500000,648.500000 
	C391.333344,648.500000 399.166656,648.500000 407.000000,648.500000 
	C427.500000,648.500000 448.024567,649.092834 468.489441,648.245056 
	C478.427032,647.833313 485.420380,651.799316 491.978790,658.022339 
	C494.995026,660.884277 497.987244,663.703979 501.468994,666.046082 
	C506.963409,669.742310 513.107605,671.129761 519.502991,671.438232 
	C525.489075,671.726990 531.500000,671.500000 537.500000,671.500000 
"/>
<path fill="none" opacity="1.000000" stroke="#000000" stroke-linecap="round" stroke-linejoin="round" stroke-width="9.000000"
	d="
M698.000000,608.500000 
	C698.823669,605.046265 699.793823,601.652161 699.540100,597.997192 
	C699.087708,591.479675 693.067810,585.577148 686.000000,585.000061 
	C680.438965,584.546021 673.937073,589.260559 673.119141,595.016907 
	C672.634888,598.424438 673.333313,602.000000 673.500000,605.500000 
"/>
<path fill="none" opacity="1.000000" stroke="#000000" stroke-linecap="round" stroke-linejoin="round" stroke-width="9.000000"
	d="
M732.000000,609.500000 
	C731.880554,599.684021 738.121704,592.905884 744.183533,586.678650 
	C749.695435,581.016357 762.107117,582.699036 766.999146,588.500732 
	C771.485107,593.820862 770.804321,606.379272 761.492554,608.466675 
	C752.116638,610.568420 742.699890,613.041992 733.012695,610.452454 
	C730.245422,609.712769 728.244385,611.936035 725.487610,611.602539 
	C716.518677,610.517517 707.470520,610.579407 698.455505,609.318115 
	C693.164001,608.577942 687.503052,609.443298 681.983887,608.606262 
	C679.729858,608.264404 677.511475,608.228699 675.490417,607.015991 
	C674.585449,606.473145 673.739258,605.797974 672.496948,605.979126 
	C665.113403,607.055969 658.324524,605.195068 652.022461,601.462036 
	C649.716187,600.095886 647.651001,602.072144 645.502686,601.489990 
	C635.887024,598.884216 626.621704,595.350403 618.546265,589.436768 
	C612.401245,584.936829 611.156067,578.611206 619.008301,573.011658 
	C629.079407,565.829773 640.715088,562.451904 652.511658,559.547363 
	C653.925903,559.199158 655.540344,559.274963 656.993652,559.535522 
	C669.054199,561.697510 680.654419,565.317200 692.045837,569.885742 
	C700.015198,573.081848 705.305603,579.100891 709.835693,585.614258 
	C714.770569,592.709595 715.992615,601.000916 713.000000,609.500000 
"/>
<path fill="none" opacity="1.000000" stroke="#000000" stroke-linecap="round" stroke-linejoin="round" stroke-width="10.000000"
	d="
M716.500000,550.750000 
	C709.833313,551.333313 703.163696,551.884399 696.500854,552.509094 
	C689.830322,553.134460 683.098328,553.458252 676.528503,554.656250 
	C673.181335,555.266541 669.343323,556.389099 668.000000,560.500000 
"/>
<path fill="none" opacity="1.000000" stroke="#000000" stroke-linecap="round" stroke-linejoin="round" stroke-width="9.000000"
	d="
M563.500000,362.750000 
	C556.456909,364.851044 550.826294,369.574066 544.524231,373.044067 
	C535.761230,377.869080 527.108032,382.902740 518.541626,388.069031 
	C516.425781,389.345123 514.252319,389.611603 512.000000,390.000000 
"/>
<path fill="none" opacity="1.000000" stroke="#000000" stroke-linecap="round" stroke-linejoin="round" stroke-width="9.000000"
	d="
M468.000000,703.500000 
	C475.033813,704.693237 481.081299,707.679993 483.920593,714.532898 
	C488.387054,725.313049 482.924408,735.397034 473.484406,738.958679 
	C463.512573,742.721008 453.136993,736.868286 450.000031,726.000000 
	C447.339569,716.782654 453.976837,706.601013 463.997589,704.488586 
	C465.181915,704.239014 466.333313,703.833313 467.500000,703.500000 
"/>
<path fill="none" opacity="1.000000" stroke="#000000" stroke-linecap="round" stroke-linejoin="round" stroke-width="10.000000"
	d="
M477.000000,603.000000 
	C478.028717,606.627502 477.502991,610.340271 477.453613,613.999390 
	C477.302887,625.166077 478.092712,636.347168 477.000000,647.500000 
"/>
<path fill="none" opacity="1.000000" stroke="#000000" stroke-linecap="round" stroke-linejoin="round" stroke-width="9.000000"
	d="
M550.500000,632.500000 
	C551.114014,627.107483 550.370239,621.637146 549.287842,616.545105 
	C546.522522,603.535645 537.437622,599.461365 526.000000,601.500000 
"/>
<path fill="none" opacity="1.000000" stroke="#000000" stroke-linecap="round" stroke-linejoin="round" stroke-width="10.000000"
	d="
M414.500000,603.500000 
	C414.500000,618.000000 414.500000,632.500000 414.500000,647.000000 
"/>
<path fill="none" opacity="1.000000" stroke="#000000" stroke-linecap="round" stroke-linejoin="round" stroke-width="10.000000"
	d="
M271.500000,603.500000 
	C271.500000,618.000000 271.500000,632.500000 271.500000,647.000000 
"/>
<path fill="none" opacity="1.000000" stroke="#000000" stroke-linecap="round" stroke-linejoin="round" stroke-width="9.000000"
	d="
M662.500000,562.000000 
	C661.000000,564.000000 659.853149,566.464417 657.939026,567.919861 
	C649.496033,574.339783 648.527405,582.956177 649.965088,592.505249 
	C650.361328,595.137390 650.333313,597.833313 650.500000,600.500000 
"/>
<path fill="none" opacity="1.000000" stroke="#000000" stroke-linecap="round" stroke-linejoin="round" stroke-width="9.000000"
	d="
M725.000000,567.000000 
	C727.543335,557.363708 732.546997,549.332031 742.045532,545.616455 
	C756.053528,540.136963 768.614319,549.069275 770.226929,564.029419 
	C770.591187,567.408325 769.142212,571.080505 771.000000,574.500000 
"/>
<path fill="none" opacity="1.000000" stroke="#000000" stroke-linecap="round" stroke-linejoin="round" stroke-width="9.000000"
	d="
M819.500000,598.500000 
	C817.873962,593.394165 819.001099,588.731323 822.023438,584.516785 
	C825.594482,579.537231 826.707031,573.204346 826.002686,568.068176 
	C825.223755,562.388733 822.242615,555.688843 815.929260,553.177917 
	C811.196594,551.295715 806.495544,552.531250 801.848999,555.784363 
	C797.557251,558.789062 795.878235,563.039368 793.565796,567.038086 
	C789.554810,573.974121 783.705688,577.036621 776.021790,575.397888 
	C768.551819,573.804688 765.085632,578.066467 762.000000,583.500000 
"/>
<path fill="none" opacity="1.000000" stroke="#000000" stroke-linecap="round" stroke-linejoin="round" stroke-width="10.000000"
	d="
M744.500000,586.000000 
	C740.116882,579.383118 735.448792,573.231262 728.054382,569.395142 
	C720.608582,565.532349 705.806152,567.035095 700.000000,573.000000 
"/>
<path fill="none" opacity="1.000000" stroke="#000000" stroke-linecap="round" stroke-linejoin="round" stroke-width="9.000000"
	d="
M803.750000,581.500000 
	C804.125549,582.520996 803.983337,583.143555 803.056519,584.057373 
	C797.938293,589.104126 793.104309,594.441162 787.940552,599.438599 
	C786.246887,601.077759 785.767944,603.040100 785.000000,605.000000 
"/>
</svg>